<?xml version="1.0" encoding="utf-8"?>
<svg xmlns="http://www.w3.org/2000/svg" viewBox="1940.2324 1633 119.5351 60.0001" width="119.535px" height="60.0001px" preserveAspectRatio="none"><g transform="matrix(0.11817800253629684, 0, 0, 0.11817800253629684, 1858.7825927734375, 1440.95361328125)" style="" id="object-0"><g><path d="M 689.213 2005.78 L 908.915 2132.77 L 1128.62 2005.78 L 1128.62 1752.05 L 908.915 1625.06 L 689.213 1752.05 L 689.213 2005.78 Z M 708.939 1876.08 L 811.269 1935.26 L 889.188 1980.13 L 786.858 2039.31 L 708.939 1994.44 L 708.939 1876.08 Z M 830.996 1833.91 L 908.915 1789.04 L 986.834 1833.91 L 986.834 1923.91 L 908.915 1968.79 L 830.996 1923.91 L 830.996 1833.91 Z M 806.584 2050.65 L 908.915 1991.48 L 986.834 1946.6 L 986.834 2064.96 L 908.915 2109.83 L 806.584 2050.65 Z M 1006.56 2053.37 L 1006.56 1845.26 L 1108.89 1904.43 L 1108.89 1994.44 L 1006.56 2053.37 Z M 1109.14 1881.5 L 980.916 1807.53 L 928.641 1777.45 L 1030.97 1718.27 L 1108.89 1763.14 L 1109.14 1881.5 Z M 1011.49 1706.92 L 909.161 1766.1 L 830.996 1810.98 L 830.996 1692.62 L 908.915 1647.75 L 1011.49 1706.92 Z M 811.269 1704.21 L 811.269 1912.32 L 708.939 1853.39 L 708.939 1763.39 L 811.269 1704.21 Z" id="rnd1" style="fill:#395781;stroke-width:2.46578836"/></g><g><g aria-label="FCR Consultores" style="font-style:normal;font-weight:normal;font-size:288.10791016px;font-family:Baron-Neue-Black, 'Baron Neue Black', 'Baron Neue Black', 'Baron Neue';letter-spacing:0px;fill:#395781;stroke-width:12.00449562" id="text10" transform="matrix(1, 0, 0, 1, 174.313965, 151.463852)"><g><path d="m 1143.1393,1670.695 h -89.6016 v 38.6064 h 73.7557 q 2.5929,0 4.0335,1.7287 1.7286,1.4405 1.7286,3.4573 v 30.8275 q 0,2.0168 -1.7286,3.7454 -1.4406,1.4406 -4.0335,1.4406 h -73.7557 v 74.908 q 0,1.7287 -1.7286,3.4573 -1.7287,1.4406 -4.3216,1.4406 h -31.98 q -2.593,0 -4.3216,-1.4406 -1.7287,-1.7286 -1.7287,-3.4573 v -191.5917 q 0,-2.0168 1.7287,-3.4573 1.7286,-1.7287 4.3216,-1.7287 h 127.6318 q 2.593,0 4.3216,1.7287 2.0168,1.4405 2.0168,3.4573 v 31.6918 q 0,2.0168 -2.0168,3.7454 -1.7286,1.4406 -4.3216,1.4406 z" style="font-style:normal;font-weight:normal;font-size:288.10791016px;font-family:Baron-Neue-Black, 'Baron Neue Black', 'Baron Neue Black', 'Baron Neue';letter-spacing:0px;fill:#395781;stroke-width:12.00449562" id="path3742"/></g><path d="m 1272.5223,1791.1241 q 23.6248,0 41.1994,-17.5746 3.7454,-3.1692 8.9313,0.8643 l 21.8962,21.8962 q 2.3049,5.186 0,7.4908 -14.1173,13.5411 -33.1324,21.6081 -18.727,7.7789 -38.8945,7.7789 -43.5043,0 -72.8913,-28.5226 -29.387,-28.8108 -29.387,-75.1962 0,-45.5211 28.8107,-74.62 28.8108,-29.0989 73.4676,-29.0989 20.1675,0 38.8945,8.0671 19.0151,8.067 33.1324,21.6081 2.593,4.6097 -0.5762,7.7789 l -22.4724,22.1843 q -4.0335,3.1692 -7.7789,0 -17.5746,-17.5746 -41.1994,-17.5746 -26.506,0 -42.0638,17.2865 -15.5578,17.2865 -15.5578,44.3686 0,27.9465 16.4221,44.9448 16.7103,16.7103 41.1995,16.7103 z" style="font-style:normal;font-weight:normal;font-size:288.10791016px;font-family:Baron-Neue-Black, 'Baron Neue Black', 'Baron Neue Black', 'Baron Neue';letter-spacing:0px;fill:#395781;stroke-width:12.00449562" id="path3744"/><path d="m 1520.6867,1830.3068 h -37.7421 q -4.3217,0 -5.4741,-2.8811 l 0.2881,0.2881 -48.4021,-77.2129 h -8.6433 v 74.908 q 0,1.7287 -1.7286,3.4573 -1.7287,1.4406 -4.3216,1.4406 h -31.98 q -2.593,0 -4.3216,-1.4406 -1.7287,-1.7286 -1.7287,-3.4573 v -111.7858 q 0,-2.0168 1.7287,-3.4573 1.7286,-1.7287 4.3216,-1.7287 h 20.7438 q -2.0168,-3.4573 -6.3384,-9.7957 -4.3216,-6.3383 -5.7622,-8.6432 l -14.6935,-23.6248 v -32.5562 q 0,-2.0168 1.7287,-3.4573 1.7286,-1.7287 4.3216,-1.7287 h 63.96 q 1.4405,0 4.0335,0.2881 2.5929,0 9.7956,1.1525 7.2027,1.1524 13.8292,3.4573 6.6265,2.0167 14.6935,6.6264 8.067,4.3217 13.8292,10.66 5.7622,6.0503 9.7957,16.1341 4.0335,10.0838 4.0335,22.4724 0,41.7756 -39.7589,55.6048 l 48.4021,77.7892 v -0.2882 q 2.0168,2.8811 0.2881,5.4741 -1.4405,2.3049 -4.8978,2.3049 z m -92.1945,-159.6118 23.6248,37.454 q 20.1676,-1.1524 20.1676,-18.727 0,-18.727 -25.6416,-18.727 z" style="font-style:normal;font-weight:normal;font-size:288.10791016px;font-family:Baron-Neue-Black, 'Baron Neue Black', 'Baron Neue Black', 'Baron Neue';letter-spacing:0px;fill:#395781;stroke-width:12.00449562" id="path3746"/></g></g></g></svg>