<?xml version="1.0" encoding="utf-8"?>
<svg xmlns="http://www.w3.org/2000/svg" viewBox="0 0 500 500" xmlns:bx="https://boxy-svg.com" width="500px" height="500px"><defs><bx:export><bx:file format="svg" path="Sin título.svg"/></bx:export></defs><g id="Logotype"><g transform="matrix(1, 0, 0, 1, -308.241364, -4.017319)"><path d="M 530.54 227.155 L 558.259 243.176 L 585.978 227.155 L 585.978 195.142 L 558.259 179.121 L 530.54 195.142 L 530.54 227.155 Z M 533.029 210.791 L 545.939 218.257 L 555.77 223.919 L 542.859 231.385 L 533.029 225.723 L 533.029 210.791 Z M 548.428 205.471 L 558.259 199.809 L 568.09 205.471 L 568.09 216.826 L 558.259 222.488 L 548.428 216.826 L 548.428 205.471 Z M 545.348 232.817 L 558.259 225.35 L 568.09 219.688 L 568.09 234.621 L 558.259 240.283 L 545.348 232.817 Z M 570.579 233.159 L 570.579 206.902 L 583.489 214.368 L 583.489 225.723 L 570.579 233.159 Z M 583.52 211.475 L 567.343 202.142 L 560.748 198.347 L 573.658 190.88 L 583.489 196.542 L 583.52 211.475 Z M 571.201 189.449 L 558.29 196.916 L 548.428 202.578 L 548.428 187.645 L 558.259 181.983 L 571.201 189.449 Z M 545.939 189.107 L 545.939 215.364 L 533.029 207.928 L 533.029 196.573 L 545.939 189.107 Z" id="rnd1" style="stroke-width: 2.4888; fill: rgb(255, 255, 255);"/><g aria-label="FCR Consultores" style="font-style:normal;font-weight:normal;font-size:355.79086304px;font-family:Baron-Neue-Black, 'Baron Neue Black', 'Baron Neue Black', 'Baron Neue';letter-spacing:0px;fill:#395781;stroke-width:14.82461929" id="text10" transform="matrix(0.125, 0, 0, 0.125, 308.080811, 37.705811)"><path d="M 565.96795,1865.7588 H 455.317 v 47.676 h 91.08246 q 3.20211,0 4.98107,2.1347 2.13474,1.779 2.13474,4.2695 v 38.0696 q 0,2.4906 -2.13474,4.6253 -1.77896,1.779 -4.98107,1.779 H 455.317 v 92.5056 q 0,2.1347 -2.13475,4.2695 -2.13474,1.7789 -5.33686,1.7789 H 408.3526 q -3.20212,0 -5.33686,-1.7789 -2.13475,-2.1348 -2.13475,-4.2695 v -236.6009 q 0,-2.4906 2.13475,-4.2695 2.13474,-2.1348 5.33686,-2.1348 h 157.61535 q 3.20212,0 5.33687,2.1348 2.49053,1.7789 2.49053,4.2695 v 39.137 q 0,2.4905 -2.49053,4.6253 -2.13475,1.7789 -5.33687,1.7789 z" style="font-style: normal; font-weight: normal; font-size: 355.791px; font-family: Baron-Neue-Black, &quot;Baron Neue Black&quot;, &quot;Baron Neue Black&quot;, &quot;Baron Neue&quot;; letter-spacing: 0px; stroke-width: 14.8246; fill: rgb(255, 255, 255);" id="path3751"/><path d="m 725.74584,2014.4794 q 29.17485,0 50.87809,-21.7033 4.62529,-3.9137 11.02952,1.0674 l 27.04011,27.0401 q 2.84632,6.4043 0,9.2506 -17.43376,16.7222 -40.91595,26.6843 -23.12641,9.6064 -48.03177,9.6064 -53.72442,0 -90.01509,-35.2233 -36.29067,-35.5791 -36.29067,-92.8615 0,-56.2149 35.57909,-92.1498 35.57909,-35.9349 90.72667,-35.9349 24.90536,0 48.03177,9.9622 23.48219,9.9621 40.91595,26.6843 3.20211,5.6926 -0.71158,9.6063 l -27.75169,27.3959 q -4.98107,3.9137 -9.60636,0 -21.70324,-21.7032 -50.87809,-21.7032 -32.73276,0 -51.94546,21.3474 -19.21271,21.3475 -19.21271,54.7918 0,34.5118 20.28008,55.5034 20.63587,20.6359 50.87809,20.6359 z" style="font-style: normal; font-weight: normal; font-size: 355.791px; font-family: Baron-Neue-Black, &quot;Baron Neue Black&quot;, &quot;Baron Neue Black&quot;, &quot;Baron Neue&quot;; letter-spacing: 0px; stroke-width: 14.8246; fill: rgb(255, 255, 255);" id="path3753"/><path d="m 1032.2096,2062.8669 h -46.60856 q -5.33687,0 -6.76003,-3.5579 l 0.35579,0.3558 -59.77286,-95.3519 h -10.67373 v 92.5056 q 0,2.1347 -2.13475,4.2695 -2.13474,1.7789 -5.33686,1.7789 h -39.49278 q -3.20212,0 -5.33687,-1.7789 -2.13474,-2.1348 -2.13474,-4.2695 v -138.0469 q 0,-2.4905 2.13474,-4.2694 2.13475,-2.1348 5.33687,-2.1348 h 25.61694 q -2.49054,-4.2695 -7.8274,-12.0969 -5.33686,-7.8274 -7.11582,-10.6737 l -18.14533,-29.1749 v -40.2043 q 0,-2.4906 2.13474,-4.2695 2.13475,-2.1348 5.33687,-2.1348 h 78.98557 q 1.77895,0 4.98107,0.3558 3.20212,0 12.09689,1.4232 8.89477,1.4232 17.07796,4.2695 8.18319,2.4905 18.14533,8.1832 9.96216,5.3368 17.07796,13.1642 7.1158,7.4716 12.0969,19.9243 4.9811,12.4527 4.9811,27.7517 0,51.5897 -49.09917,68.6676 l 59.77287,96.0636 v -0.3558 q 2.4905,3.5579 0.3558,6.76 -1.779,2.8463 -6.0485,2.8463 z m -113.85304,-197.1081 29.17485,46.2528 q 24.90536,-1.4231 24.90536,-23.1264 0,-23.1264 -31.66538,-23.1264 z" style="font-style: normal; font-weight: normal; font-size: 355.791px; font-family: Baron-Neue-Black, &quot;Baron Neue Black&quot;, &quot;Baron Neue Black&quot;, &quot;Baron Neue&quot;; letter-spacing: 0px; stroke-width: 14.8246; fill: rgb(255, 255, 255);" id="path3755"/><path d="m 1312.9397,2014.4794 q 29.1749,0 50.8781,-21.7033 4.6253,-3.9137 11.0295,1.0674 l 27.0402,27.0401 q 2.8463,6.4043 0,9.2506 -17.4338,16.7222 -40.916,26.6843 -23.1264,9.6064 -48.0318,9.6064 -53.7244,0 -90.0151,-35.2233 -36.2906,-35.5791 -36.2906,-92.8615 0,-56.2149 35.5791,-92.1498 35.5791,-35.9349 90.7266,-35.9349 24.9054,0 48.0318,9.9622 23.4822,9.9621 40.916,26.6843 3.2021,5.6926 -0.7116,9.6063 l -27.7517,27.3959 q -4.9811,3.9137 -9.6064,0 -21.7032,-21.7032 -50.8781,-21.7032 -32.7327,0 -51.9454,21.3474 -19.2127,21.3475 -19.2127,54.7918 0,34.5118 20.28,55.5034 20.6359,20.6359 50.8781,20.6359 z" style="font-style: normal; font-weight: normal; font-size: 355.791px; font-family: Baron-Neue-Black, &quot;Baron Neue Black&quot;, &quot;Baron Neue Black&quot;, &quot;Baron Neue&quot;; letter-spacing: 0px; stroke-width: 14.8246; fill: rgb(255, 255, 255);" id="path3757"/><path d="m 1556.0728,1813.1018 q 29.1749,0 53.0128,11.0295 23.838,10.6737 38.7812,28.819 14.9433,17.7896 22.7707,40.2044 7.8274,22.059 7.8274,46.2528 0,24.1938 -7.8274,46.6086 -7.8274,22.0591 -22.7707,40.2044 -14.9432,18.1453 -38.7812,29.1748 -23.8379,10.6738 -53.0128,10.6738 -29.5306,0 -53.7244,-10.6738 -23.838,-11.0295 -38.7812,-29.1748 -14.5874,-18.1453 -22.4148,-40.2044 -7.8274,-22.4148 -7.8274,-46.6086 0,-32.7327 13.1642,-60.8402 13.1643,-28.1075 41.6276,-46.6086 28.819,-18.8569 67.956,-18.8569 z m 0,202.8007 q 31.6654,0 49.8107,-22.4148 18.1454,-22.4148 18.1454,-53.3686 0,-30.9538 -18.1454,-53.7244 -18.1453,-23.1264 -49.8107,-23.1264 -32.0212,0 -50.1665,22.7706 -17.7895,22.7706 -17.7895,54.0802 0,30.9538 17.7895,53.3686 18.1453,22.4148 50.1665,22.4148 z" style="font-style: normal; font-weight: normal; font-size: 355.791px; font-family: Baron-Neue-Black, &quot;Baron Neue Black&quot;, &quot;Baron Neue Black&quot;, &quot;Baron Neue&quot;; letter-spacing: 0px; stroke-width: 14.8246; fill: rgb(255, 255, 255);" id="path3759"/><path d="m 1933.8783,1822.3523 v 234.4662 q 0,2.1347 -2.1348,4.2695 -2.1347,1.7789 -5.3369,1.7789 h -38.7812 q -4.2694,0 -6.4042,-2.4905 L 1779.465,1912.0116 v 144.8069 q 0,2.1347 -2.1347,4.2695 -2.1348,1.7789 -5.3369,1.7789 h -38.7812 q -7.1158,0 -7.1158,-6.0484 v -234.4662 q 0,-6.0484 7.1158,-6.0484 h 39.137 q 4.2695,0 6.0485,2.1347 l 102.1119,150.1438 v -146.2301 q 0,-2.4905 2.1348,-4.2695 2.1347,-1.7789 5.3368,-1.7789 h 38.4254 q 7.4717,0 7.4717,6.0484 z" style="font-style: normal; font-weight: normal; font-size: 355.791px; font-family: Baron-Neue-Black, &quot;Baron Neue Black&quot;, &quot;Baron Neue Black&quot;, &quot;Baron Neue&quot;; letter-spacing: 0px; stroke-width: 14.8246; fill: rgb(255, 255, 255);" id="path3761"/><path d="m 2060.6065,2066.4249 q -34.8675,-0.7116 -57.2824,-20.2801 -22.4148,-19.5685 -22.7706,-53.7244 0,-5.6927 7.4716,-5.6927 h 38.7812 q 7.4716,0 7.4716,5.6927 0.3558,11.0295 7.8274,17.0779 7.4716,5.6927 18.5012,5.6927 11.0295,0 18.5011,-6.4043 7.8274,-6.4042 7.8274,-17.0779 0,-10.6738 -8.539,-18.1454 -8.1832,-7.4716 -17.7895,-8.1832 -19.9243,0 -38.0697,-8.1831 -19.9242,-9.6064 -30.9538,-27.0401 -11.0295,-17.4338 -11.0295,-39.8486 0,-34.5117 23.4822,-55.5034 23.838,-21.3475 56.5708,-21.3475 33.0885,0 55.8591,20.2801 22.7706,20.2801 23.1264,52.3013 0,2.4905 -2.1347,4.2695 -2.1348,1.7789 -5.3369,1.7789 h -38.4254 q -2.8463,0 -5.3369,-1.7789 -2.1347,-1.779 -2.1347,-4.2695 -0.3558,-10.318 -7.8274,-16.0106 -7.4716,-6.0484 -17.7895,-6.0484 -11.3853,0 -18.857,6.76 -7.4716,6.76 -7.4716,19.5685 0,11.3853 7.8274,18.5011 7.8274,7.1158 18.5012,7.1158 19.5685,0 37.358,8.1832 20.2801,9.2506 31.3096,27.3959 11.0295,17.7895 11.0295,40.2044 0,34.5117 -23.4822,54.7918 -23.4822,19.9243 -56.2149,19.9243 z" style="font-style: normal; font-weight: normal; font-size: 355.791px; font-family: Baron-Neue-Black, &quot;Baron Neue Black&quot;, &quot;Baron Neue Black&quot;, &quot;Baron Neue&quot;; letter-spacing: 0px; stroke-width: 14.8246; fill: rgb(255, 255, 255);" id="path3763"/><path d="m 2277.272,2066.4249 q -40.2044,0 -67.6003,-23.1265 -27.0401,-23.1264 -27.0401,-60.8402 v -157.6153 q 0,-2.4906 2.1348,-4.2695 2.1347,-2.1348 5.3368,-2.1348 h 38.7813 q 3.2021,0 5.3368,2.1348 2.1348,1.7789 2.1348,4.2695 v 156.9037 q 2.4905,15.299 13.8758,24.5496 11.7411,8.8948 27.0401,8.8948 16.3664,0 28.4633,-8.539 12.0969,-8.539 12.0969,-24.1938 v -157.6153 q 0,-2.4906 2.1347,-4.2695 2.1348,-2.1348 5.3369,-2.1348 h 39.137 q 2.8463,0 4.981,2.1348 2.1348,1.7789 2.1348,4.2695 v 157.6153 q 0,38.7812 -26.6843,61.5518 -26.3286,22.4149 -67.6003,22.4149 z" style="font-style: normal; font-weight: normal; font-size: 355.791px; font-family: Baron-Neue-Black, &quot;Baron Neue Black&quot;, &quot;Baron Neue Black&quot;, &quot;Baron Neue&quot;; letter-spacing: 0px; stroke-width: 14.8246; fill: rgb(255, 255, 255);" id="path3765"/><path d="m 2478.8609,2011.9888 h 78.274 q 3.2021,0 5.3369,1.779 2.1347,1.779 2.1347,4.2695 v 38.7812 q 0,2.1347 -2.1347,4.2695 -2.1348,1.7789 -5.3369,1.7789 h -124.5268 q -3.2021,0 -5.3369,-1.7789 -2.1347,-2.1348 -2.1347,-4.2695 v -234.1104 q 0,-6.0484 7.4716,-6.0484 h 38.7812 q 3.2021,0 5.3369,1.7789 2.1347,1.779 2.1347,4.2695 z" style="font-style: normal; font-weight: normal; font-size: 355.791px; font-family: Baron-Neue-Black, &quot;Baron Neue Black&quot;, &quot;Baron Neue Black&quot;, &quot;Baron Neue&quot;; letter-spacing: 0px; stroke-width: 14.8246; fill: rgb(255, 255, 255);" id="path3767"/><path d="m 2715.5397,1824.8429 v 35.579 q 0,5.6927 -7.4716,5.6927 h -41.2717 v 190.7039 q 0,2.4905 -2.1348,4.2695 -1.7789,1.7789 -4.981,1.7789 h -38.7812 q -7.1159,0 -7.1159,-6.0484 v -190.7039 h -41.6275 q -7.4716,0 -7.4716,-5.6927 v -35.579 q 0,-2.4906 2.1348,-4.2695 2.1347,-2.1348 5.3368,-2.1348 h 135.9121 q 3.2021,0 5.3369,2.1348 2.1347,1.7789 2.1347,4.2695 z" style="font-style: normal; font-weight: normal; font-size: 355.791px; font-family: Baron-Neue-Black, &quot;Baron Neue Black&quot;, &quot;Baron Neue Black&quot;, &quot;Baron Neue&quot;; letter-spacing: 0px; stroke-width: 14.8246; fill: rgb(255, 255, 255);" id="path3769"/><path d="m 2859.0178,1813.1018 q 29.1748,0 53.0128,11.0295 23.838,10.6737 38.7812,28.819 14.9432,17.7896 22.7706,40.2044 7.8274,22.059 7.8274,46.2528 0,24.1938 -7.8274,46.6086 -7.8274,22.0591 -22.7706,40.2044 -14.9432,18.1453 -38.7812,29.1748 -23.838,10.6738 -53.0128,10.6738 -29.5307,0 -53.7245,-10.6738 -23.838,-11.0295 -38.7812,-29.1748 -14.5874,-18.1453 -22.4148,-40.2044 -7.8274,-22.4148 -7.8274,-46.6086 0,-32.7327 13.1643,-60.8402 13.1642,-28.1075 41.6275,-46.6086 28.8191,-18.8569 67.9561,-18.8569 z m 0,202.8007 q 31.6653,0 49.8107,-22.4148 18.1453,-22.4148 18.1453,-53.3686 0,-30.9538 -18.1453,-53.7244 -18.1454,-23.1264 -49.8107,-23.1264 -32.0212,0 -50.1666,22.7706 -17.7895,22.7706 -17.7895,54.0802 0,30.9538 17.7895,53.3686 18.1454,22.4148 50.1666,22.4148 z" style="font-style: normal; font-weight: normal; font-size: 355.791px; font-family: Baron-Neue-Black, &quot;Baron Neue Black&quot;, &quot;Baron Neue Black&quot;, &quot;Baron Neue&quot;; letter-spacing: 0px; stroke-width: 14.8246; fill: rgb(255, 255, 255);" id="path3771"/><path d="m 3143.2503,2058.9532 -43.4065,-94.6403 h -18.1453 v 92.5056 q 0,2.1347 -2.4905,4.2695 -2.1348,1.7789 -5.3369,1.7789 h -38.7812 q -3.2021,0 -5.3369,-1.7789 -1.7789,-2.1348 -1.7789,-4.2695 v -234.1104 q 0,-2.4905 1.7789,-4.2695 2.1348,-1.7789 5.3369,-1.7789 h 77.2066 q 6.0485,0 11.3853,0.7115 5.6927,0.3558 16.7222,2.1348 11.3853,1.7789 20.2801,6.76 8.8948,4.9811 17.7895,12.8085 9.2506,7.4716 14.2317,20.9917 4.981,13.52 4.981,30.9538 0,49.0991 -43.4065,66.1771 2.1348,4.6252 10.318,22.7706 8.539,18.1453 12.8085,27.0401 l 21.7032,47.3202 q 1.4232,3.2021 -0.3558,6.0484 -1.779,2.4905 -6.0484,2.4905 h -42.6949 q -1.779,0 -4.2695,-1.0673 -2.1348,-1.4232 -2.4906,-2.8464 z m -61.5518,-192.127 v 50.1665 h 30.598 q 31.6654,0 31.6654,-24.9054 0,-10.3179 -7.1158,-16.3664 -7.1158,-6.4042 -13.1643,-7.4716 -6.0484,-1.4231 -11.3853,-1.4231 z" style="font-style: normal; font-weight: normal; font-size: 355.791px; font-family: Baron-Neue-Black, &quot;Baron Neue Black&quot;, &quot;Baron Neue Black&quot;, &quot;Baron Neue&quot;; letter-spacing: 0px; stroke-width: 14.8246; fill: rgb(255, 255, 255);" id="path3773"/><path d="M 3403.5502,1866.8262 H 3295.034 v 48.7433 h 89.3035 q 7.1158,0 7.1158,6.0485 v 37.358 q 0,2.4905 -2.1348,4.2695 -1.7789,1.779 -4.981,1.779 h -89.3035 v 48.0317 h 108.5162 q 3.5579,0 5.6926,1.779 2.1348,1.7789 2.1348,4.2695 v 37.7138 q 0,2.1347 -2.4906,4.2695 -2.1347,1.7789 -5.3368,1.7789 h -154.7691 q -3.2021,0 -5.3368,-1.7789 -1.779,-2.1348 -1.779,-4.2695 v -234.1104 q 0,-2.4905 1.779,-4.2695 2.1347,-1.7789 5.3368,-1.7789 h 154.7691 q 3.5579,0 5.6926,1.7789 2.1348,1.779 2.1348,4.2695 v 38.0696 q 0,2.1348 -2.4906,4.2695 -2.1347,1.779 -5.3368,1.779 z" style="font-style: normal; font-weight: normal; font-size: 355.791px; font-family: Baron-Neue-Black, &quot;Baron Neue Black&quot;, &quot;Baron Neue Black&quot;, &quot;Baron Neue&quot;; letter-spacing: 0px; stroke-width: 14.8246; fill: rgb(255, 255, 255);" id="path3775"/><path d="m 3521.9895,2066.4249 q -34.8675,-0.7116 -57.2823,-20.2801 -22.4148,-19.5685 -22.7706,-53.7244 0,-5.6927 7.4716,-5.6927 h 38.7812 q 7.4716,0 7.4716,5.6927 0.3558,11.0295 7.8274,17.0779 7.4716,5.6927 18.5011,5.6927 11.0295,0 18.5011,-6.4043 7.8274,-6.4042 7.8274,-17.0779 0,-10.6738 -8.5389,-18.1454 -8.1832,-7.4716 -17.7896,-8.1832 -19.9243,0 -38.0696,-8.1831 -19.9243,-9.6064 -30.9538,-27.0401 -11.0295,-17.4338 -11.0295,-39.8486 0,-34.5117 23.4822,-55.5034 23.838,-21.3475 56.5707,-21.3475 33.0886,0 55.8592,20.2801 22.7706,20.2801 23.1264,52.3013 0,2.4905 -2.1348,4.2695 -2.1347,1.7789 -5.3368,1.7789 h -38.4254 q -2.8464,0 -5.3369,-1.7789 -2.1347,-1.779 -2.1347,-4.2695 -0.3558,-10.318 -7.8274,-16.0106 -7.4716,-6.0484 -17.7896,-6.0484 -11.3853,0 -18.8569,6.76 -7.4716,6.76 -7.4716,19.5685 0,11.3853 7.8274,18.5011 7.8274,7.1158 18.5011,7.1158 19.5685,0 37.3581,8.1832 20.28,9.2506 31.3096,27.3959 11.0295,17.7895 11.0295,40.2044 0,34.5117 -23.4822,54.7918 -23.4822,19.9243 -56.215,19.9243 z" style="font-style: normal; font-weight: normal; font-size: 355.791px; font-family: Baron-Neue-Black, &quot;Baron Neue Black&quot;, &quot;Baron Neue Black&quot;, &quot;Baron Neue&quot;; letter-spacing: 0px; stroke-width: 14.8246; fill: rgb(255, 255, 255);" id="path3777"/></g><g aria-label="Servicios y Consultoría TI" style="font-style:normal;font-weight:normal;font-size:100.76412964px;font-family:Baron-Neue, 'Baron Neue', 'Baron Neue';letter-spacing:25.19103241px;fill:#395781;stroke-width:4.1985054" id="text14" transform="matrix(0.125, 0, 0, 0.125, 308.080811, 37.705811)"><path d="m 1009.6818,2328.8565 q -9.5726,-0.2015 -15.82,-5.542 -6.14662,-5.4413 -6.24738,-15.0139 h 11.7894 q 0.10077,4.1314 3.02288,6.4489 3.023,2.3176 7.2551,2.3176 4.2321,0 7.255,-2.5191 3.0229,-2.5191 3.0229,-6.5497 0,-4.2321 -3.2244,-6.8519 -3.1237,-2.7206 -7.0535,-2.9222 -5.4413,0 -10.58027,-2.3176 -11.48711,-5.3405 -11.48711,-18.0367 0,-9.6734 6.54967,-15.6185 6.54971,-5.9451 15.51771,-5.9451 9.2703,0 15.4169,5.7436 6.2474,5.6428 6.3481,14.51 h -11.6886 q -0.1008,-4.1313 -3.0229,-6.2473 -2.8214,-2.2169 -7.0535,-2.2169 -4.4337,0 -7.3558,2.5192 -2.92218,2.5191 -2.92218,7.255 0,4.1313 3.02288,6.5496 3.023,2.4184 7.2551,2.4184 5.4412,0 10.4794,2.3176 5.5421,2.5191 8.4642,7.5573 3.0229,4.9374 3.0229,11.2855 0,9.6734 -6.4489,15.3162 -6.4489,5.542 -15.5176,5.542 z" style="font-style: normal; font-weight: normal; font-size: 100.764px; font-family: Baron-Neue, &quot;Baron Neue&quot;, &quot;Baron Neue&quot;; letter-spacing: 25.191px; stroke-width: 4.19851; fill: rgb(255, 255, 255);" id="path3780"/><path d="m 1117.0932,2269.1034 h -35.2675 v 17.6337 h 29.3224 v 11.6887 h -29.3224 v 17.6337 h 35.2675 v 11.7894 h -47.0569 v -70.5349 h 47.0569 z" style="font-style: normal; font-weight: normal; font-size: 100.764px; font-family: Baron-Neue, &quot;Baron Neue&quot;, &quot;Baron Neue&quot;; letter-spacing: 25.191px; stroke-width: 4.19851; fill: rgb(255, 255, 255);" id="path3782"/><path d="m 1189.2293,2327.8489 -13.5024,-29.4231 h -9.5726 v 29.4231 h -11.7894 v -70.5349 h 23.478 q 0.5038,0 1.31,0.1008 0.9068,0 3.3252,0.403 2.4183,0.4031 4.6351,1.1084 2.3176,0.7054 5.0382,2.3176 2.7207,1.5114 4.6352,3.6275 1.9145,2.0153 3.2244,5.4413 1.4107,3.3252 1.4107,7.5573 0,13.8047 -13.6031,18.7421 l 14.4092,31.2369 z m -23.075,-58.7455 v 17.6337 h 11.6886 q 0.5038,0 1.31,0 0.8061,-0.1008 2.8214,-0.6046 2.0152,-0.5038 3.5267,-1.3099 1.6122,-0.8061 2.8214,-2.6199 1.3099,-1.8137 1.3099,-4.3328 0,-3.9298 -2.9221,-6.0459 -2.9222,-2.2168 -5.9451,-2.4183 l -2.9222,-0.3023 z" style="font-style: normal; font-weight: normal; font-size: 100.764px; font-family: Baron-Neue, &quot;Baron Neue&quot;, &quot;Baron Neue&quot;; letter-spacing: 25.191px; stroke-width: 4.19851; fill: rgb(255, 255, 255);" id="path3784"/><path d="m 1275.7463,2257.314 h 12.6963 l -28.214,72.3486 -28.1132,-72.3486 h 12.6963 l 15.4169,41.6156 z" style="font-style: normal; font-weight: normal; font-size: 100.764px; font-family: Baron-Neue, &quot;Baron Neue&quot;, &quot;Baron Neue&quot;; letter-spacing: 25.191px; stroke-width: 4.19851; fill: rgb(255, 255, 255);" id="path3786"/><path d="m 1322.0521,2327.8489 v -70.5349 h 11.7895 v 70.5349 z" style="font-style: normal; font-weight: normal; font-size: 100.764px; font-family: Baron-Neue, &quot;Baron Neue&quot;, &quot;Baron Neue&quot;; letter-spacing: 25.191px; stroke-width: 4.19851; fill: rgb(255, 255, 255);" id="path3788"/><path d="m 1408.0339,2317.0671 q 9.7741,0 16.626,-6.8519 l 8.2627,8.3634 q -10.2779,10.2779 -24.8887,10.2779 -15.0139,0 -25.1911,-9.9756 -10.1771,-10.0764 -10.1771,-26.2995 0,-15.9207 9.8748,-26.0979 9.9757,-10.1772 25.4934,-10.1772 14.7115,0 24.8887,10.3788 l -8.2627,8.2626 q -6.8519,-6.852 -16.626,-6.852 -10.681,0 -17.0292,6.852 -6.3481,6.7512 -6.3481,17.6337 0,11.0841 6.6504,17.8353 6.7512,6.6504 16.7269,6.6504 z" style="font-style: normal; font-weight: normal; font-size: 100.764px; font-family: Baron-Neue, &quot;Baron Neue&quot;, &quot;Baron Neue&quot;; letter-spacing: 25.191px; stroke-width: 4.19851; fill: rgb(255, 255, 255);" id="path3790"/><path d="m 1470.4431,2327.8489 v -70.5349 h 11.7894 v 70.5349 z" style="font-style: normal; font-weight: normal; font-size: 100.764px; font-family: Baron-Neue, &quot;Baron Neue&quot;, &quot;Baron Neue&quot;; letter-spacing: 25.191px; stroke-width: 4.19851; fill: rgb(255, 255, 255);" id="path3792"/><path d="m 1540.3025,2259.5308 q 6.852,-3.1237 15.2154,-3.1237 8.3634,0 15.1146,3.1237 6.7512,3.1237 10.8825,8.2627 4.2321,5.0382 6.4489,11.5878 2.3176,6.4489 2.3176,13.2001 0,6.7512 -2.3176,13.3009 -2.2168,6.4489 -6.3481,11.5879 -4.1313,5.0382 -10.9833,8.1619 -6.7512,3.1237 -15.1146,3.1237 -8.4642,0 -15.3162,-3.1237 -6.7512,-3.1237 -10.9833,-8.1619 -4.1313,-5.139 -6.4489,-11.5879 -2.2168,-6.5497 -2.2168,-13.3009 0,-6.7512 2.3176,-13.2001 2.3176,-6.5496 6.4489,-11.5878 4.2321,-5.139 10.9833,-8.2627 z m 15.2154,57.8386 q 6.2474,0 11.1848,-2.7206 4.9374,-2.7207 7.4565,-7.0535 2.6199,-4.4336 3.7283,-9.6734 1.2092,-5.2397 0,-10.4794 -1.1084,-5.3405 -3.7283,-9.6734 -2.5191,-4.4336 -7.4565,-7.1542 -4.9374,-2.7207 -11.1848,-2.7207 -5.542,0 -9.9757,2.1161 -4.4336,2.116 -7.255,5.6428 -2.7206,3.4259 -4.2321,7.8596 -1.4107,4.4336 -1.4107,9.1695 0,4.6351 1.4107,9.0688 1.5115,4.4336 4.2321,7.9603 2.8214,3.426 7.255,5.5421 4.4337,2.116 9.9757,2.116 z" style="font-style: normal; font-weight: normal; font-size: 100.764px; font-family: Baron-Neue, &quot;Baron Neue&quot;, &quot;Baron Neue&quot;; letter-spacing: 25.191px; stroke-width: 4.19851; fill: rgb(255, 255, 255);" id="path3794"/><path d="m 1648.5106,2328.8565 q -9.5726,-0.2015 -15.8199,-5.542 -6.1467,-5.4413 -6.2474,-15.0139 h 11.7894 q 0.1007,4.1314 3.0229,6.4489 3.0229,2.3176 7.255,2.3176 4.2321,0 7.255,-2.4183 3.023,-2.5191 3.023,-6.5497 0,-4.2321 -3.2245,-6.9527 -3.2244,-2.7206 -7.0535,-2.9222 -5.4412,0 -10.5802,-2.3176 -11.4871,-5.3405 -11.4871,-18.0367 0,-9.6734 6.5496,-15.6185 6.5497,-5.9451 15.5177,-5.9451 9.2703,0 15.4169,5.7436 6.2474,5.6428 6.3482,14.51 h -11.6887 q -0.1007,-4.1313 -3.0229,-6.2473 -2.8214,-2.2169 -7.0535,-2.2169 -4.4336,0 -7.3558,2.5192 -2.9221,2.5191 -2.9221,7.255 0,4.1313 3.0229,6.5496 3.0229,2.4184 7.255,2.4184 5.4413,0 10.4795,2.3176 5.542,2.5191 8.4642,7.5573 3.0229,5.0382 3.0229,11.3863 0,9.6734 -6.4489,15.2154 -6.4489,5.542 -15.5177,5.542 z" style="font-style: normal; font-weight: normal; font-size: 100.764px; font-family: Baron-Neue, &quot;Baron Neue&quot;, &quot;Baron Neue&quot;; letter-spacing: 25.191px; stroke-width: 4.19851; fill: rgb(255, 255, 255);" id="path3796"/><path d="m 1811.3124,2257.314 h 14.4092 l -26.5009,37.182 v 33.3529 h -11.7894 v -33.3529 l -26.501,-37.182 h 14.4093 l 18.0367,25.191 z" style="font-style: normal; font-weight: normal; font-size: 100.764px; font-family: Baron-Neue, &quot;Baron Neue&quot;, &quot;Baron Neue&quot;; letter-spacing: 25.191px; stroke-width: 4.19851; fill: rgb(255, 255, 255);" id="path3798"/><path d="m 1952.0027,2317.0671 q 9.7741,0 16.6261,-6.8519 l 8.2626,8.3634 q -10.2779,10.2779 -24.8887,10.2779 -15.0139,0 -25.191,-9.9756 -10.1772,-10.0764 -10.1772,-26.2995 0,-15.9207 9.8749,-26.0979 9.9756,-10.1772 25.4933,-10.1772 14.7116,0 24.8887,10.3788 l -8.2626,8.2626 q -6.852,-6.852 -16.6261,-6.852 -10.681,0 -17.0291,6.852 -6.3482,6.7512 -6.3482,17.6337 0,11.0841 6.6505,17.8353 6.7512,6.6504 16.7268,6.6504 z" style="font-style: normal; font-weight: normal; font-size: 100.764px; font-family: Baron-Neue, &quot;Baron Neue&quot;, &quot;Baron Neue&quot;; letter-spacing: 25.191px; stroke-width: 4.19851; fill: rgb(255, 255, 255);" id="path3800"/><path d="m 2030.9372,2259.5308 q 6.852,-3.1237 15.2154,-3.1237 8.3634,0 15.1146,3.1237 6.7512,3.1237 10.8825,8.2627 4.2321,5.0382 6.4489,11.5878 2.3176,6.4489 2.3176,13.2001 0,6.7512 -2.3176,13.3009 -2.2168,6.4489 -6.3481,11.5879 -4.1313,5.0382 -10.9833,8.1619 -6.7512,3.1237 -15.1146,3.1237 -8.4642,0 -15.3162,-3.1237 -6.7512,-3.1237 -10.9832,-8.1619 -4.1314,-5.139 -6.449,-11.5879 -2.2168,-6.5497 -2.2168,-13.3009 0,-6.7512 2.3176,-13.2001 2.3176,-6.5496 6.4489,-11.5878 4.2321,-5.139 10.9833,-8.2627 z m 15.2154,57.8386 q 6.2474,0 11.1848,-2.7206 4.9375,-2.7207 7.4566,-7.0535 2.6198,-4.4336 3.7282,-9.6734 1.2092,-5.2397 0,-10.4794 -1.1084,-5.3405 -3.7282,-9.6734 -2.5191,-4.4336 -7.4566,-7.1542 -4.9374,-2.7207 -11.1848,-2.7207 -5.542,0 -9.9757,2.1161 -4.4336,2.116 -7.255,5.6428 -2.7206,3.4259 -4.2321,7.8596 -1.4107,4.4336 -1.4107,9.1695 0,4.6351 1.4107,9.0688 1.5115,4.4336 4.2321,7.9603 2.8214,3.426 7.255,5.5421 4.4337,2.116 9.9757,2.116 z" style="font-style: normal; font-weight: normal; font-size: 100.764px; font-family: Baron-Neue, &quot;Baron Neue&quot;, &quot;Baron Neue&quot;; letter-spacing: 25.191px; stroke-width: 4.19851; fill: rgb(255, 255, 255);" id="path3802"/><path d="m 2178.3425,2257.314 v 70.5349 h -11.8902 l -35.0659,-50.1806 v 50.1806 h -11.7894 v -70.5349 h 11.8902 l 35.1667,50.1805 v -50.1805 z" style="font-style: normal; font-weight: normal; font-size: 100.764px; font-family: Baron-Neue, &quot;Baron Neue&quot;, &quot;Baron Neue&quot;; letter-spacing: 25.191px; stroke-width: 4.19851; fill: rgb(255, 255, 255);" id="path3804"/><path d="m 2239.1222,2328.8565 q -9.5726,-0.2015 -15.82,-5.542 -6.1466,-5.4413 -6.2474,-15.0139 h 11.7895 q 0.1007,4.1314 3.0229,6.4489 3.0229,2.3176 7.255,2.3176 4.2321,0 7.255,-2.4183 3.0229,-2.5191 3.0229,-6.5497 0,-4.2321 -3.2244,-6.9527 -3.2245,-2.7206 -7.0535,-2.9222 -5.4413,0 -10.5802,-2.3176 -11.4872,-5.3405 -11.4872,-18.0367 0,-9.6734 6.5497,-15.6185 6.5497,-5.9451 15.5177,-5.9451 9.2703,0 15.4169,5.7436 6.2474,5.6428 6.3481,14.51 h -11.6886 q -0.1008,-4.1313 -3.0229,-6.2473 -2.8214,-2.2169 -7.0535,-2.2169 -4.4336,0 -7.3558,2.5192 -2.9221,2.5191 -2.9221,7.255 0,4.1313 3.0229,6.5496 3.0229,2.4184 7.255,2.4184 5.4413,0 10.4795,2.3176 5.542,2.5191 8.4642,7.5573 3.0229,5.0382 3.0229,11.3863 0,9.6734 -6.4489,15.2154 -6.4489,5.542 -15.5177,5.542 z" style="font-style: normal; font-weight: normal; font-size: 100.764px; font-family: Baron-Neue, &quot;Baron Neue&quot;, &quot;Baron Neue&quot;; letter-spacing: 25.191px; stroke-width: 4.19851; fill: rgb(255, 255, 255);" id="path3806"/><path d="m 2325.877,2328.8565 q -11.1848,0 -18.8429,-6.4489 -7.5573,-6.5497 -7.5573,-17.1299 v -47.9637 h 11.7894 v 47.9637 q 0.403,5.8443 4.5344,8.8673 4.1313,2.9221 10.0764,2.9221 5.9451,0 10.2779,-3.1237 4.4336,-3.1237 4.4336,-8.6657 v -47.9637 h 11.7895 v 47.9637 q 0,10.9833 -7.4566,17.3314 -7.4565,6.2474 -19.0444,6.2474 z" style="font-style: normal; font-weight: normal; font-size: 100.764px; font-family: Baron-Neue, &quot;Baron Neue&quot;, &quot;Baron Neue&quot;; letter-spacing: 25.191px; stroke-width: 4.19851; fill: rgb(255, 255, 255);" id="path3808"/><path d="m 2405.3389,2316.0595 h 26.098 v 11.7894 h -37.8874 v -70.5349 h 11.7894 z" style="font-style: normal; font-weight: normal; font-size: 100.764px; font-family: Baron-Neue, &quot;Baron Neue&quot;, &quot;Baron Neue&quot;; letter-spacing: 25.191px; stroke-width: 4.19851; fill: rgb(255, 255, 255);" id="path3810"/><path d="m 2499.3739,2257.314 v 10.7817 h -14.8123 v 59.7532 h -11.6886 v -59.7532 h -14.8124 v -10.7817 z" style="font-style: normal; font-weight: normal; font-size: 100.764px; font-family: Baron-Neue, &quot;Baron Neue&quot;, &quot;Baron Neue&quot;; letter-spacing: 25.191px; stroke-width: 4.19851; fill: rgb(255, 255, 255);" id="path3812"/><path d="m 2551.0927,2259.5308 q 6.852,-3.1237 15.2154,-3.1237 8.3634,0 15.1146,3.1237 6.7512,3.1237 10.8826,8.2627 4.232,5.0382 6.4489,11.5878 2.3175,6.4489 2.3175,13.2001 0,6.7512 -2.3175,13.3009 -2.2169,6.4489 -6.3482,11.5879 -4.1313,5.0382 -10.9833,8.1619 -6.7512,3.1237 -15.1146,3.1237 -8.4642,0 -15.3161,-3.1237 -6.7512,-3.1237 -10.9833,-8.1619 -4.1314,-5.139 -6.4489,-11.5879 -2.2168,-6.5497 -2.2168,-13.3009 0,-6.7512 2.3175,-13.2001 2.3176,-6.5496 6.4489,-11.5878 4.2321,-5.139 10.9833,-8.2627 z m 15.2154,57.8386 q 6.2474,0 11.1848,-2.7206 4.9375,-2.7207 7.4566,-7.0535 2.6198,-4.4336 3.7282,-9.6734 1.2092,-5.2397 0,-10.4794 -1.1084,-5.3405 -3.7282,-9.6734 -2.5191,-4.4336 -7.4566,-7.1542 -4.9374,-2.7207 -11.1848,-2.7207 -5.542,0 -9.9756,2.1161 -4.4337,2.116 -7.2551,5.6428 -2.7206,3.4259 -4.2321,7.8596 -1.4106,4.4336 -1.4106,9.1695 0,4.6351 1.4106,9.0688 1.5115,4.4336 4.2321,7.9603 2.8214,3.426 7.2551,5.5421 4.4336,2.116 9.9756,2.116 z" style="font-style: normal; font-weight: normal; font-size: 100.764px; font-family: Baron-Neue, &quot;Baron Neue&quot;, &quot;Baron Neue&quot;; letter-spacing: 25.191px; stroke-width: 4.19851; fill: rgb(255, 255, 255);" id="path3814"/><path d="m 2674.5162,2327.8489 -13.5024,-29.4231 h -9.5726 v 29.4231 h -11.7894 v -70.5349 h 23.478 q 0.5038,0 1.31,0.1008 0.9068,0 3.3252,0.403 2.4183,0.4031 4.6351,1.1084 2.3176,0.7054 5.0382,2.3176 2.7207,1.5114 4.6352,3.6275 1.9145,2.0153 3.2244,5.4413 1.4107,3.3252 1.4107,7.5573 0,13.8047 -13.6031,18.7421 l 14.4092,31.2369 z m -23.075,-58.7455 v 17.6337 h 11.6886 q 0.5038,0 1.31,0 0.8061,-0.1008 2.8213,-0.6046 2.0153,-0.5038 3.5268,-1.3099 1.6122,-0.8061 2.8214,-2.6199 1.3099,-1.8137 1.3099,-4.3328 0,-3.9298 -2.9221,-6.0459 -2.9222,-2.2168 -5.9451,-2.4183 l -2.9222,-0.3023 z" style="font-style: normal; font-weight: normal; font-size: 100.764px; font-family: Baron-Neue, &quot;Baron Neue&quot;, &quot;Baron Neue&quot;; letter-spacing: 25.191px; stroke-width: 4.19851; fill: rgb(255, 255, 255);" id="path3816"/><path d="m 2725.6649,2327.8489 v -70.5349 h 11.7894 v 70.5349 z m -1.4107,-74.5655 -4.9374,-8.2626 19.1452,-10.4795 5.3405,8.4642 z" style="font-style: normal; font-weight: normal; font-size: 100.764px; font-family: Baron-Neue, &quot;Baron Neue&quot;, &quot;Baron Neue&quot;; letter-spacing: 25.191px; stroke-width: 4.19851; fill: rgb(255, 255, 255);" id="path3818"/><path d="m 2814.3674,2327.8489 -3.1237,-8.1619 h -24.788 l -3.0229,8.1619 h -12.6963 l 28.1132,-72.5502 28.214,72.5502 z m -15.5177,-42.8248 -8.5649,24.4857 h 17.1299 z" style="font-style: normal; font-weight: normal; font-size: 100.764px; font-family: Baron-Neue, &quot;Baron Neue&quot;, &quot;Baron Neue&quot;; letter-spacing: 25.191px; stroke-width: 4.19851; fill: rgb(255, 255, 255);" id="path3820"/><path d="m 2955.5678,2257.314 v 10.7817 h -14.8124 v 59.7532 h -11.6886 v -59.7532 h -14.8123 v -10.7817 z" style="font-style: normal; font-weight: normal; font-size: 100.764px; font-family: Baron-Neue, &quot;Baron Neue&quot;, &quot;Baron Neue&quot;; letter-spacing: 25.191px; stroke-width: 4.19851; fill: rgb(255, 255, 255);" id="path3822"/><path d="m 3013.7355,2268.0957 h -7.8596 v 48.9714 h 8.2626 v 10.7818 h -28.3147 v -10.7818 h 8.2627 v -48.9714 h -7.8596 v -10.7817 h 27.5086 z" style="font-style: normal; font-weight: normal; font-size: 100.764px; font-family: Baron-Neue, &quot;Baron Neue&quot;, &quot;Baron Neue&quot;; letter-spacing: 25.191px; stroke-width: 4.19851; fill: rgb(255, 255, 255);" id="path3824"/></g></g></g></svg>