<?xml version="1.0" encoding="utf-8"?>
<svg xmlns="http://www.w3.org/2000/svg" viewBox="1800.3092 1633 399.3815 60.0001" width="399.382px" height="60.0001px" preserveAspectRatio="none"><g transform="matrix(0.12475300580263138, 0, 0, 0.12475300580263138, 1750.407958984375, 1447.1483154296875)" id="object-0"><path d="m400 1850.412 208.124 120.296 208.124-120.296v-240.359l-208.124-120.296L400 1610.053Zm18.687-122.866 96.937 56.06 73.813 42.513-96.938 56.06-73.812-42.512zm115.624-39.943 73.813-42.512 73.813 42.512v85.259l-73.813 42.512-73.813-42.512zm-23.125 205.321 96.938-56.06 73.813-42.512v112.12l-73.813 42.512zm189.437 2.57v-197.146l96.938 56.06v85.259zm97.171-162.809-121.463-70.075-49.52-28.497 96.937-56.06 73.813 42.512zm-92.499-165.378-96.938 56.06-74.046 42.513v-112.12l73.813-42.513zm-189.67-2.57v197.146l-96.938-55.826v-85.259z" style="fill:#fff;stroke-width:2.33584547"/><g aria-label="FCR Consultores" style="font-style:normal;font-weight:400;font-size:290.6829834px;font-family:Baron-Neue-Black,&quot;Baron Neue Black&quot;,&quot;Baron Neue Black&quot;,&quot;Baron Neue&quot;;letter-spacing:0;fill:#fff;stroke-width:12.11179066"><path d="M1121.18 1650.503h-90.402v38.952h74.415q2.616 0 4.07 1.744 1.743 1.453 1.743 3.488v31.103q0 2.035-1.744 3.779-1.453 1.453-4.07 1.453h-74.414v75.578q0 1.744-1.744 3.488-1.744 1.454-4.36 1.454h-32.266q-2.617 0-4.36-1.454-1.745-1.744-1.745-3.488v-193.304q0-2.035 1.744-3.488 1.744-1.745 4.36-1.745h128.773q2.616 0 4.36 1.745 2.035 1.453 2.035 3.488v31.975q0 2.035-2.035 3.779-1.744 1.453-4.36 1.453zM1251.72 1772.009q23.835 0 41.567-17.732 3.779-3.197 9.011.872l22.092 22.092q2.326 5.232 0 7.558-14.243 13.662-33.428 21.801-18.895 7.849-39.243 7.849-43.893 0-73.542-28.778-29.65-29.068-29.65-75.868 0-45.928 29.068-75.287 29.069-29.36 74.124-29.36 20.348 0 39.243 8.14 19.185 8.139 33.428 21.801 2.616 4.651-.581 7.849l-22.673 22.382q-4.07 3.198-7.849 0-17.732-17.732-41.568-17.732-26.742 0-42.44 17.441-15.696 17.441-15.696 44.766 0 28.196 16.569 45.346 16.86 16.86 41.567 16.86zM1502.102 1811.542h-38.08q-4.36 0-5.522-2.907l.29.29-48.834-77.903h-8.721v75.578q0 1.744-1.744 3.488-1.744 1.454-4.36 1.454h-32.266q-2.616 0-4.36-1.454-1.744-1.744-1.744-3.488v-112.785q0-2.035 1.744-3.488 1.744-1.744 4.36-1.744h20.93q-2.036-3.489-6.396-9.884-4.36-6.395-5.814-8.72l-14.824-23.836v-32.847q0-2.035 1.744-3.488 1.744-1.744 4.36-1.744h64.532q1.453 0 4.07.29 2.615 0 9.882 1.163 7.267 1.163 13.953 3.488 6.686 2.035 14.825 6.686 8.139 4.36 13.953 10.755 5.813 6.105 9.883 16.278 4.07 10.174 4.07 22.674 0 42.149-40.115 56.102l48.835 78.484v-.29q2.035 2.906.29 5.522-1.453 2.326-4.941 2.326zm-93.019-161.039 23.837 37.789q20.347-1.163 20.347-18.894 0-18.895-25.87-18.895zM1731.46 1772.009q23.836 0 41.568-17.732 3.779-3.197 9.01.872l22.093 22.092q2.325 5.232 0 7.558-14.244 13.662-33.429 21.801-18.894 7.849-39.242 7.849-43.893 0-73.543-28.778-29.65-29.068-29.65-75.868 0-45.928 29.069-75.287 29.068-29.36 74.124-29.36 20.348 0 39.242 8.14 19.185 8.139 33.429 21.801 2.616 4.651-.582 7.849l-22.673 22.382q-4.07 3.198-7.848 0-17.732-17.732-41.568-17.732-26.743 0-42.44 17.441t-15.697 44.766q0 28.196 16.57 45.346 16.859 16.86 41.567 16.86zM1930.1 1607.482q23.837 0 43.313 9.011 19.475 8.72 31.684 23.546 12.209 14.534 18.604 32.847 6.395 18.022 6.395 37.789 0 19.766-6.395 38.08-6.395 18.021-18.604 32.846-12.209 14.825-31.684 23.836-19.476 8.72-43.312 8.72-24.127 0-43.893-8.72-19.476-9.01-31.685-23.836-11.918-14.825-18.313-32.847-6.395-18.313-6.395-38.08 0-26.742 10.756-49.706 10.755-22.964 34.01-38.08 23.545-15.406 55.52-15.406zm0 165.69q25.872 0 40.697-18.314 14.824-18.313 14.824-43.602 0-25.29-14.824-43.893-14.825-18.895-40.696-18.895-26.162 0-40.986 18.604-14.535 18.604-14.535 44.184 0 25.29 14.535 43.602 14.824 18.313 40.986 18.313zM2238.77 1615.04v191.56q0 1.744-1.744 3.488-1.744 1.454-4.36 1.454h-31.685q-3.488 0-5.232-2.035l-83.135-121.215V1806.6q0 1.744-1.745 3.488-1.744 1.454-4.36 1.454h-31.684q-5.814 0-5.814-4.942v-191.56q0-4.942 5.814-4.942h31.975q3.488 0 4.941 1.744l83.426 122.669V1615.04q0-2.035 1.745-3.488 1.744-1.454 4.36-1.454h31.394q6.104 0 6.104 4.942zM2342.308 1814.448q-28.487-.58-46.8-16.569-18.313-15.987-18.604-43.893 0-4.65 6.104-4.65h31.685q6.104 0 6.104 4.65.29 9.012 6.395 13.953 6.104 4.651 15.116 4.651 9.01 0 15.115-5.232 6.395-5.232 6.395-13.953 0-8.72-6.976-14.825-6.686-6.104-14.534-6.685-16.279 0-31.104-6.686-16.278-7.849-25.289-22.092-9.011-14.244-9.011-32.557 0-28.196 19.185-45.346 19.476-17.441 46.219-17.441 27.033 0 45.637 16.569t18.894 42.73q0 2.035-1.744 3.488-1.744 1.454-4.36 1.454h-31.394q-2.325 0-4.36-1.454-1.744-1.453-1.744-3.488-.29-8.43-6.395-13.08-6.105-4.942-14.534-4.942-9.302 0-15.407 5.523-6.104 5.523-6.104 15.987 0 9.302 6.395 15.116t15.116 5.814q15.987 0 30.521 6.685 16.57 7.558 25.58 22.383 9.012 14.534 9.012 32.847 0 28.196-19.185 44.765-19.186 16.278-45.928 16.278zM2519.324 1814.448q-32.847 0-55.23-18.894-22.091-18.894-22.091-49.707v-128.772q0-2.035 1.744-3.488 1.744-1.745 4.36-1.745h31.685q2.616 0 4.36 1.745 1.744 1.453 1.744 3.488v128.19q2.035 12.5 11.336 20.058 9.593 7.267 22.092 7.267 13.372 0 23.255-6.976 9.883-6.977 9.883-19.767v-128.772q0-2.035 1.744-3.488 1.744-1.745 4.36-1.745h31.976q2.325 0 4.07 1.745 1.743 1.453 1.743 3.488v128.772q0 31.685-21.8 50.288-21.511 18.314-55.23 18.314zM2684.023 1769.974h63.95q2.617 0 4.361 1.453 1.744 1.454 1.744 3.489v31.684q0 1.744-1.744 3.488-1.744 1.454-4.36 1.454h-101.74q-2.615 0-4.36-1.454-1.744-1.744-1.744-3.488v-191.27q0-4.941 6.105-4.941h31.684q2.616 0 4.36 1.453 1.744 1.454 1.744 3.489zM2877.391 1617.075v29.068q0 4.65-6.104 4.65h-33.72V1806.6q0 2.035-1.743 3.488-1.454 1.454-4.07 1.454h-31.684q-5.814 0-5.814-4.942v-155.806h-34.01q-6.104 0-6.104-4.651v-29.068q0-2.035 1.744-3.489 1.744-1.744 4.36-1.744h111.041q2.616 0 4.36 1.744 1.744 1.454 1.744 3.489zM2994.614 1607.482q23.836 0 43.312 9.011 19.475 8.72 31.684 23.546 12.209 14.534 18.604 32.847 6.395 18.022 6.395 37.789 0 19.766-6.395 38.08-6.395 18.021-18.604 32.846-12.209 14.825-31.684 23.836-19.476 8.72-43.312 8.72-24.127 0-43.893-8.72-19.476-9.01-31.685-23.836-11.918-14.825-18.313-32.847-6.395-18.313-6.395-38.08 0-26.742 10.755-49.706 10.756-22.964 34.01-38.08 23.546-15.406 55.52-15.406zm0 165.69q25.87 0 40.695-18.314 14.825-18.313 14.825-43.602 0-25.29-14.825-43.893-14.825-18.895-40.695-18.895-26.162 0-40.986 18.604-14.535 18.604-14.535 44.184 0 25.29 14.535 43.602 14.824 18.313 40.986 18.313zM3226.833 1808.344l-35.463-77.322h-14.825v75.578q0 1.744-2.035 3.488-1.744 1.454-4.36 1.454h-31.685q-2.616 0-4.36-1.454-1.453-1.744-1.453-3.488v-191.27q0-2.034 1.453-3.488 1.744-1.453 4.36-1.453h63.079q4.941 0 9.302.581 4.65.291 13.662 1.744 9.302 1.454 16.569 5.523 7.267 4.07 14.534 10.465 7.557 6.104 11.627 17.15t4.07 25.29q0 40.114-35.464 54.067 1.744 3.779 8.43 18.603 6.976 14.825 10.465 22.092l17.731 38.661q1.163 2.616-.29 4.942-1.454 2.035-4.942 2.035h-34.882q-1.453 0-3.488-.872-1.744-1.163-2.035-2.326zm-50.288-156.969v40.987h24.999q25.87 0 25.87-20.348 0-8.43-5.813-13.372-5.814-5.232-10.755-6.104-4.942-1.163-9.302-1.163zM3439.5 1651.375h-88.659v39.824h72.962q5.813 0 5.813 4.941v30.522q0 2.035-1.744 3.488-1.453 1.454-4.07 1.454h-72.96v39.242h88.658q2.906 0 4.65 1.453 1.745 1.454 1.745 3.489v30.812q0 1.744-2.035 3.488-1.744 1.454-4.36 1.454h-126.447q-2.617 0-4.36-1.454-1.454-1.744-1.454-3.488v-191.27q0-2.034 1.453-3.488 1.744-1.453 4.36-1.453H3439.5q2.906 0 4.65 1.453 1.745 1.454 1.745 3.489v31.103q0 1.744-2.035 3.488-1.744 1.453-4.36 1.453zM3536.265 1814.448q-28.487-.58-46.8-16.569-18.313-15.987-18.604-43.893 0-4.65 6.105-4.65h31.684q6.104 0 6.104 4.65.291 9.012 6.396 13.953 6.104 4.651 15.115 4.651t15.116-5.232q6.395-5.232 6.395-13.953 0-8.72-6.977-14.825-6.686-6.104-14.534-6.685-16.278 0-31.103-6.686-16.278-7.849-25.29-22.092-9.01-14.244-9.01-32.557 0-28.196 19.185-45.346 19.475-17.441 46.218-17.441 27.034 0 45.637 16.569 18.604 16.569 18.895 42.73 0 2.035-1.744 3.488-1.744 1.454-4.36 1.454h-31.394q-2.326 0-4.36-1.454-1.745-1.453-1.745-3.488-.29-8.43-6.395-13.08-6.104-4.942-14.534-4.942-9.302 0-15.406 5.523-6.104 5.523-6.104 15.987 0 9.302 6.395 15.116t15.115 5.814q15.988 0 30.522 6.685 16.569 7.558 25.58 22.383 9.011 14.534 9.011 32.847 0 28.196-19.185 44.765-19.185 16.278-45.928 16.278z" style="font-style:normal;font-weight:400;font-size:290.6829834px;font-family:Baron-Neue-Black,&quot;Baron Neue Black&quot;,&quot;Baron Neue Black&quot;,&quot;Baron Neue&quot;;letter-spacing:0;fill:#fff;stroke-width:12.11179066"/></g><g aria-label="Servicios y Consultoría TI" style="font-style:normal;font-weight:400;font-size:82.01412201px;font-family:Baron-Neue,&quot;Baron Neue&quot;,&quot;Baron Neue&quot;;letter-spacing:20.5035305px;fill:#fff;stroke-width:3.41725516"><path d="M1013.662 1955.93q-7.792-.164-12.877-4.511-5.003-4.429-5.085-12.22h9.596q.082 3.362 2.46 5.249 2.46 1.886 5.906 1.886 3.444 0 5.905-2.05 2.46-2.05 2.46-5.331 0-3.445-2.624-5.577-2.543-2.215-5.741-2.379-4.43 0-8.612-1.886-9.35-4.347-9.35-14.68 0-7.874 5.331-12.713 5.331-4.838 12.63-4.838 7.546 0 12.549 4.674 5.085 4.593 5.167 11.81h-9.514q-.082-3.362-2.46-5.084-2.297-1.805-5.741-1.805-3.61 0-5.987 2.05-2.379 2.051-2.379 5.906 0 3.362 2.46 5.33 2.46 1.969 5.906 1.969 4.428 0 8.529 1.886 4.51 2.05 6.89 6.151 2.46 4.019 2.46 9.186 0 7.873-5.25 12.466-5.248 4.51-12.63 4.51zM1101.086 1907.295h-28.705v14.353h23.866v9.514h-23.866v14.352h28.705v9.596h-38.3v-57.41h38.3zM1159.8 1955.11l-10.99-23.948h-7.792v23.948h-9.596v-57.41h19.11q.41 0 1.066.082.738 0 2.706.328t3.773.902q1.886.574 4.1 1.886 2.215 1.23 3.773 2.953 1.558 1.64 2.625 4.429 1.148 2.706 1.148 6.15 0 11.236-11.072 15.255l11.728 25.425zm-18.782-47.815v14.353h10.58q.656-.082 2.296-.492 1.64-.41 2.87-1.066 1.313-.656 2.297-2.133 1.066-1.476 1.066-3.526 0-3.199-2.378-4.921-2.379-1.804-4.839-1.969l-2.378-.246zM1230.217 1897.7h10.334l-22.964 58.886-22.882-58.886h10.334l12.548 33.872zM1267.907 1955.11v-57.41h9.595v57.41zM1337.889 1946.334q7.955 0 13.532-5.577l6.725 6.807q-8.365 8.366-20.257 8.366-12.22 0-20.503-8.12-8.284-8.201-8.284-21.405 0-12.959 8.037-21.242 8.12-8.283 20.75-8.283 11.974 0 20.258 8.447l-6.726 6.725q-5.577-5.577-13.532-5.577-8.694 0-13.86 5.577-5.167 5.495-5.167 14.353 0 9.021 5.413 14.516 5.495 5.413 13.614 5.413zM1388.685 1955.11v-57.41h9.596v57.41zM1445.545 1899.504q5.577-2.542 12.384-2.542 6.808 0 12.303 2.542 5.495 2.542 8.857 6.725 3.445 4.1 5.249 9.432 1.886 5.249 1.886 10.744t-1.886 10.825q-1.804 5.25-5.167 9.432-3.362 4.1-8.94 6.643-5.494 2.543-12.302 2.543-6.889 0-12.466-2.543-5.495-2.542-8.94-6.643-3.362-4.183-5.248-9.432-1.804-5.33-1.804-10.825 0-5.495 1.886-10.744 1.886-5.331 5.249-9.432 3.444-4.183 8.94-6.725zm12.384 47.076q5.085 0 9.104-2.214 4.019-2.215 6.07-5.741 2.131-3.609 3.034-7.874.984-4.264 0-8.529-.903-4.347-3.035-7.873-2.05-3.609-6.069-5.823-4.019-2.215-9.104-2.215-4.51 0-8.119 1.722-3.609 1.723-5.905 4.593-2.214 2.789-3.445 6.397-1.148 3.609-1.148 7.464 0 3.772 1.148 7.381 1.23 3.609 3.445 6.48 2.296 2.788 5.905 4.51 3.609 1.722 8.12 1.722zM1533.618 1955.93q-7.791-.164-12.876-4.511-5.003-4.429-5.085-12.22h9.596q.082 3.362 2.46 5.249 2.46 1.886 5.905 1.886 3.445 0 5.905-1.968 2.46-2.05 2.46-5.331 0-3.445-2.624-5.66-2.624-2.214-5.74-2.378-4.43 0-8.612-1.886-9.35-4.347-9.35-14.68 0-7.874 5.331-12.713 5.331-4.838 12.63-4.838 7.545 0 12.548 4.674 5.085 4.593 5.167 11.81h-9.513q-.082-3.362-2.46-5.084-2.297-1.805-5.742-1.805-3.608 0-5.987 2.05-2.378 2.051-2.378 5.906 0 3.362 2.46 5.33 2.46 1.969 5.905 1.969 4.429 0 8.53 1.886 4.51 2.05 6.889 6.151 2.46 4.101 2.46 9.268 0 7.873-5.249 12.384-5.249 4.51-12.63 4.51zM1666.126 1897.7h11.728l-21.57 30.263v27.147h-9.595v-27.147l-21.57-30.263h11.728l14.68 20.503zM1780.637 1946.334q7.955 0 13.532-5.577l6.726 6.807q-8.366 8.366-20.258 8.366-12.22 0-20.503-8.12-8.284-8.201-8.284-21.405 0-12.959 8.038-21.242 8.119-8.283 20.75-8.283 11.973 0 20.257 8.447l-6.726 6.725q-5.577-5.577-13.532-5.577-8.693 0-13.86 5.577-5.167 5.495-5.167 14.353 0 9.021 5.413 14.516 5.495 5.413 13.614 5.413zM1844.884 1899.504q5.577-2.542 12.384-2.542t12.302 2.542q5.495 2.542 8.857 6.725 3.445 4.1 5.25 9.432 1.886 5.249 1.886 10.744t-1.887 10.825q-1.804 5.25-5.167 9.432-3.362 4.1-8.94 6.643-5.494 2.543-12.301 2.543-6.89 0-12.466-2.543-5.495-2.542-8.94-6.643-3.363-4.183-5.249-9.432-1.804-5.33-1.804-10.825 0-5.495 1.886-10.744 1.887-5.331 5.25-9.432 3.444-4.183 8.939-6.725zm12.384 47.076q5.085 0 9.103-2.214 4.019-2.215 6.07-5.741 2.132-3.609 3.034-7.874.984-4.264 0-8.529-.902-4.347-3.035-7.873-2.05-3.609-6.069-5.823-4.018-2.215-9.103-2.215-4.511 0-8.12 1.722-3.608 1.723-5.905 4.593-2.214 2.789-3.444 6.397-1.149 3.609-1.149 7.464 0 3.772 1.149 7.381 1.23 3.609 3.444 6.48 2.297 2.788 5.905 4.51 3.609 1.722 8.12 1.722zM1964.86 1897.7v57.41h-9.678l-28.54-40.843v40.843h-9.596v-57.41h9.678l28.622 40.843V1897.7zM2014.33 1955.93q-7.791-.164-12.876-4.511-5.003-4.429-5.085-12.22h9.596q.082 3.362 2.46 5.249 2.46 1.886 5.905 1.886 3.445 0 5.905-1.968 2.46-2.05 2.46-5.331 0-3.445-2.624-5.66-2.624-2.214-5.741-2.378-4.429 0-8.612-1.886-9.35-4.347-9.35-14.68 0-7.874 5.332-12.713 5.33-4.838 12.63-4.838 7.545 0 12.548 4.674 5.085 4.593 5.167 11.81h-9.514q-.082-3.362-2.46-5.084-2.296-1.805-5.741-1.805-3.609 0-5.987 2.05-2.379 2.051-2.379 5.906 0 3.362 2.46 5.33 2.461 1.969 5.906 1.969 4.429 0 8.53 1.886 4.51 2.05 6.889 6.151 2.46 4.101 2.46 9.268 0 7.873-5.249 12.384-5.249 4.51-12.63 4.51zM2084.941 1955.93q-9.103 0-15.336-5.25-6.151-5.33-6.151-13.942V1897.7h9.595v39.038q.329 4.757 3.691 7.218 3.363 2.378 8.202 2.378 4.838 0 8.365-2.542 3.609-2.543 3.609-7.053v-39.04h9.595v39.04q0 8.939-6.069 14.106-6.069 5.085-15.5 5.085zM2149.617 1945.514h21.242v9.596h-30.837v-57.41h9.595zM2226.154 1897.7v8.775h-12.056v48.635h-9.513v-48.635h-12.056v-8.775zM2268.25 1899.504q5.576-2.542 12.384-2.542 6.807 0 12.302 2.542 5.495 2.542 8.857 6.725 3.445 4.1 5.25 9.432 1.886 5.249 1.886 10.744t-1.887 10.825q-1.804 5.25-5.167 9.432-3.362 4.1-8.94 6.643-5.494 2.543-12.301 2.543-6.89 0-12.466-2.543-5.496-2.542-8.94-6.643-3.363-4.183-5.249-9.432-1.804-5.33-1.804-10.825 0-5.495 1.886-10.744 1.886-5.331 5.249-9.432 3.445-4.183 8.94-6.725zm12.384 47.076q5.085 0 9.103-2.214 4.019-2.215 6.07-5.741 2.132-3.609 3.034-7.874.984-4.264 0-8.529-.902-4.347-3.035-7.873-2.05-3.609-6.069-5.823-4.019-2.215-9.103-2.215-4.511 0-8.12 1.722-3.608 1.723-5.905 4.593-2.214 2.789-3.444 6.397-1.149 3.609-1.149 7.464 0 3.772 1.149 7.381 1.23 3.609 3.444 6.48 2.297 2.788 5.905 4.51 3.609 1.722 8.12 1.722zM2368.706 1955.11l-10.99-23.948h-7.79v23.948h-9.596v-57.41h19.109q.41 0 1.066.082.738 0 2.707.328 1.968.328 3.772.902 1.887.574 4.101 1.886 2.214 1.23 3.773 2.953 1.558 1.64 2.624 4.429 1.148 2.706 1.148 6.15 0 11.236-11.072 15.255l11.728 25.425zm-18.78-47.815v14.353h10.579q.656-.082 2.297-.492 1.64-.41 2.87-1.066 1.312-.656 2.296-2.133 1.067-1.476 1.067-3.526 0-3.199-2.379-4.921-2.378-1.804-4.839-1.969l-2.378-.246zM2410.338 1955.11v-57.41h9.595v57.41zm-1.149-60.69-4.018-6.726 15.582-8.53 4.347 6.89zM2482.535 1955.11l-2.543-6.643h-20.175l-2.46 6.643h-10.335l22.882-59.05 22.964 59.05zm-12.63-34.856-6.972 19.929h13.943zM2597.46 1897.7v8.775h-12.056v48.635h-9.513v-48.635h-12.056v-8.775zM2644.805 1906.475h-6.397v39.86h6.725v8.775h-23.046v-8.776h6.725v-39.859h-6.397v-8.775h22.39z" style="font-style:normal;font-weight:400;font-size:82.01412201px;font-family:Baron-Neue,&quot;Baron Neue&quot;,&quot;Baron Neue&quot;;letter-spacing:20.5035305px;fill:#fff;stroke-width:3.41725516"/></g></g></svg>